<svg width="41" height="47" viewBox="0 0 41 47" fill="none" xmlns="http://www.w3.org/2000/svg">
<g clip-path="url(#clip0)">
<path d="M40.9017 44.6543L39.4832 39.5114C38.5712 35.9508 35.5314 33.3299 31.7823 32.8355L28.5399 32.3903L27.5266 29.5718C30.2118 27.742 32.2384 24.9233 32.9983 21.5606C33.9609 21.0661 35.4808 19.8298 35.4808 16.7639C35.4808 14.5386 35.1261 13.154 34.3155 12.4616C34.1636 12.3133 33.9609 12.2144 33.7582 12.066C32.9983 5.29126 27.4254 0 20.4844 0C13.5435 0 7.97058 5.24179 7.21062 12.1155C7.00797 12.2144 6.80531 12.3133 6.70399 12.4616C5.84272 13.2529 5.48808 14.588 5.48808 16.8133C5.48808 19.8793 7.00797 21.1156 7.97058 21.61C8.78119 24.9728 10.8077 27.7915 13.4422 29.6211L12.4289 32.3903L9.13583 32.8355C5.38675 33.3299 2.3976 35.9508 1.435 39.5114L0.0670857 44.6543C-0.0849043 45.2476 0.0164223 45.7915 0.421729 46.2861C0.776373 46.7311 1.33367 46.9783 1.89097 46.9783H39.0779C39.6859 46.9783 40.2432 46.7311 40.5471 46.2861C40.9525 45.8409 41.0537 45.2476 40.9017 44.6543ZM14.3542 33.4783L15.3674 30.6596C16.938 31.4014 18.7112 31.8464 20.5351 31.8464C22.3589 31.8464 24.0308 31.4014 25.6013 30.709L26.564 33.5279C22.967 36.0992 18.0019 36.0992 14.3542 33.4783ZM20.4338 29.72C15.3674 29.72 10.9597 25.9124 9.94644 20.621C9.84511 20.2254 9.54113 19.8793 9.13583 19.7804C8.98384 19.731 7.61592 19.3352 7.61592 16.8133C7.61592 15.4782 7.76793 14.7859 7.91992 14.3902C8.12257 14.3902 8.27456 14.3902 8.27456 14.3902C8.27456 14.7364 8.52787 16.121 8.83185 16.121H10.3518C10.6557 16.121 10.9091 15.8243 10.9091 15.4782C10.9091 15.4782 11.213 11.5715 11.5677 9.09899C11.6183 8.50556 12.125 8.1594 12.6316 8.30777C14.6075 8.75282 17.3433 9.04952 20.3832 9.04952C23.423 9.04952 26.1588 8.75282 28.1345 8.30777C28.6411 8.1594 29.148 8.55501 29.1986 9.09899C29.5025 11.621 29.8571 15.4782 29.8571 15.4782C29.8571 15.8243 30.1104 16.121 30.4145 16.121H31.9344C32.2384 16.121 32.4917 14.7364 32.4917 14.3902C32.4917 14.3902 32.6435 14.3902 32.8462 14.3902C32.9983 14.7859 33.1502 15.4286 33.1502 16.8133C33.1502 19.3352 31.7823 19.731 31.6811 19.7804C31.2757 19.8793 30.9212 20.2254 30.8197 20.621C29.9585 25.9124 25.5507 29.72 20.4338 29.72Z" fill="black"/>
<path d="M16.886 18.3162C17.9275 18.3162 18.7719 17.4803 18.7719 16.4493C18.7719 15.4182 17.9275 14.5823 16.886 14.5823C15.8444 14.5823 15 15.4182 15 16.4493C15 17.4803 15.8444 18.3162 16.886 18.3162Z" fill="black"/>
<path d="M24.7358 18.3162C25.7773 18.3162 26.6218 17.4803 26.6218 16.4493C26.6218 15.4182 25.7773 14.5823 24.7358 14.5823C23.694 14.5823 22.8497 15.4182 22.8497 16.4493C22.8497 17.4803 23.694 18.3162 24.7358 18.3162Z" fill="black"/>
<path d="M20.8108 22.1005C19.1797 22.1005 17.6505 23.0088 16.835 24.4216C16.6311 24.7748 16.784 25.2794 17.1408 25.4812C17.4976 25.683 18.0073 25.5317 18.2112 25.1785C18.721 24.2198 19.7404 23.6647 20.8108 23.6647C21.8812 23.6647 22.9007 24.2702 23.4105 25.1785C23.5634 25.4308 23.8183 25.5821 24.0732 25.5821C24.1751 25.5821 24.328 25.5317 24.43 25.4812C24.7868 25.2794 24.9397 24.8253 24.7358 24.4216C23.9712 23.0088 22.4419 22.1005 20.8108 22.1005Z" fill="black"/>
</g>
<defs>
<clipPath id="clip0">
<rect width="41" height="47" fill="white"/>
</clipPath>
</defs>
</svg>
