<svg width="41" height="47" viewBox="0 0 41 47" fill="none" xmlns="http://www.w3.org/2000/svg">
<path d="M40.9 0H0V46.9H40.9V0Z" fill="white"/>
<path d="M40.8019 44.5593L39.3869 39.4273C38.4771 35.8744 35.4447 33.259 31.7048 32.7657L28.4702 32.3214L27.4595 29.5089C30.1381 27.683 32.1597 24.8703 32.9178 21.5147C33.8781 21.0213 35.3942 19.7877 35.3942 16.7283C35.3942 14.5077 35.0404 13.126 34.2318 12.4351C34.0803 12.2871 33.8781 12.1884 33.6759 12.0404C32.9178 5.28 27.3585 0 20.4344 0C13.5105 0 7.95113 5.23064 7.19302 12.0897C6.99087 12.1884 6.78871 12.2871 6.68763 12.4351C5.82846 13.2247 5.47469 14.557 5.47469 16.7776C5.47469 19.837 6.99087 21.0707 7.95113 21.5641C8.75976 24.9197 10.7814 27.7323 13.4094 29.5581L12.3986 32.3214L9.11354 32.7657C5.37361 33.259 2.39175 35.8744 1.4315 39.4273L0.0669218 44.5593C-0.0846974 45.1514 0.016382 45.6941 0.4207 46.1877C0.774479 46.6317 1.33042 46.8784 1.88636 46.8784H38.9825C39.5891 46.8784 40.145 46.6317 40.4482 46.1877C40.8526 45.7434 40.9536 45.1514 40.8019 44.5593ZM14.3191 33.4071L15.3299 30.5944C16.8967 31.3346 18.6655 31.7787 20.4849 31.7787C22.3043 31.7787 23.9722 31.3346 25.5389 30.6437L26.4992 33.4566C22.9109 36.0224 17.958 36.0224 14.3191 33.4071ZM20.3839 29.6567C15.3299 29.6567 10.933 25.8573 9.92217 20.5771C9.82109 20.1824 9.51785 19.837 9.11354 19.7383C8.96192 19.689 7.59734 19.2941 7.59734 16.7776C7.59734 15.4453 7.74898 14.7544 7.90059 14.3596C8.10275 14.3596 8.25437 14.3596 8.25437 14.3596C8.25437 14.7051 8.50707 16.0867 8.8103 16.0867H10.3265C10.6297 16.0867 10.8824 15.7906 10.8824 15.4453C10.8824 15.4453 11.1857 11.5469 11.5394 9.07963C11.59 8.48747 12.0954 8.14205 12.6008 8.2901C14.5718 8.73421 17.301 9.03028 20.3334 9.03028C23.3658 9.03028 26.095 8.73421 28.0658 8.2901C28.5712 8.14205 29.0768 8.53681 29.1273 9.07963C29.4305 11.5963 29.7842 15.4453 29.7842 15.4453C29.7842 15.7906 30.0369 16.0867 30.3403 16.0867H31.8565C32.1597 16.0867 32.4124 14.7051 32.4124 14.3596C32.4124 14.3596 32.5639 14.3596 32.7661 14.3596C32.9178 14.7544 33.0693 15.3958 33.0693 16.7776C33.0693 19.2941 31.7048 19.689 31.6038 19.7383C31.1994 19.837 30.8457 20.1824 30.7445 20.5771C29.8854 25.8573 25.4884 29.6567 20.3839 29.6567Z" fill="black"/>
<path d="M15.7357 14.3813C15.0276 14.6284 14.5217 15.2709 14.5217 16.0616C14.5217 17.05 15.3816 17.8902 16.3933 17.8902C17.405 17.8902 18.265 17.0995 18.265 16.0616C18.265 15.9134 18.2144 15.7651 18.1638 15.6169L18.3661 15.7157C18.4673 15.7651 18.5685 15.7651 18.6696 15.7651C18.872 15.7651 19.1249 15.6663 19.2261 15.4686C19.3778 15.1721 19.2766 14.8261 18.9731 14.6779L15.2805 12.7505C14.977 12.6022 14.6229 12.701 14.4711 12.9976C14.3194 13.2941 14.4206 13.64 14.7241 13.7883L15.7357 14.3813Z" fill="black"/>
<path d="M21.9575 15.864C22.0587 15.864 22.1599 15.864 22.2611 15.8145L22.4635 15.7157C22.4128 15.864 22.3623 16.0122 22.3623 16.1605C22.3623 17.1489 23.2222 17.989 24.2339 17.989C25.2457 17.989 26.1055 17.1983 26.1055 16.1605C26.1055 15.3697 25.5997 14.7273 24.8916 14.4802L25.9538 13.9366C26.2572 13.7883 26.3584 13.3929 26.2067 13.1458C26.055 12.8493 25.6502 12.7505 25.3974 12.8987L21.7047 14.8261C21.4013 14.9744 21.3001 15.3697 21.4518 15.6169C21.5025 15.7157 21.7047 15.864 21.9575 15.864Z" fill="black"/>
<path d="M16.2922 24.216C16.3933 24.5126 16.6968 24.6608 17.0004 24.6608C17.1015 24.6608 17.2027 24.6608 17.3039 24.6114C17.3039 24.6114 18.6696 24.0678 20.2378 24.0678C21.8058 24.0678 23.1717 24.6114 23.2222 24.6114C23.627 24.7596 24.0822 24.5619 24.2339 24.216C24.3856 23.8207 24.1834 23.3759 23.8293 23.2277C23.7786 23.1782 22.1599 22.5852 20.2883 22.5852C18.4167 22.5852 16.8486 23.2277 16.7474 23.2277C16.3428 23.4252 16.1404 23.8207 16.2922 24.216Z" fill="black"/>
</svg>
