<svg xmlns:xlink="http://www.w3.org/1999/xlink" xmlns="http://www.w3.org/2000/svg" stroke-width="0.501" stroke-linejoin="bevel" fill-rule="evenodd" version="1.1" overflow="visible" viewBox="0 0 12 15" x="0px" y="0px"><g fill="none" stroke="black" font-family="Times New Roman" font-size="16" transform="scale(1 -1)"><g transform="translate(0 -12)"><g><g stroke-linejoin="miter" stroke-linecap="round" stroke="none" stroke-width="0.75" fill="#000000" stroke-miterlimit="79.8403193612775"><path d="M 0,1.417 L 0,11.332 C 0,11.7 0.299,11.999 0.667,11.999 L 8.332,11.999 C 8.7,11.999 8.999,11.7 8.999,11.332 L 8.999,5.998 L 3.751,0.75 L 0.667,0.75 C 0.299,0.75 0,1.049 0,1.417 Z M 4.5,2.624 L 4.5,2.625 C 4.5,2.831 4.332,2.999 4.125,2.999 L 1.874,2.999 C 1.667,2.999 1.499,2.831 1.499,2.625 L 1.499,2.624 C 1.499,2.418 1.667,2.25 1.874,2.25 L 4.125,2.25 C 4.332,2.25 4.5,2.418 4.5,2.624 Z M 6,4.124 L 6,4.125 C 6,4.331 5.832,4.499 5.625,4.499 L 5.624,4.499 C 5.417,4.499 5.249,4.331 5.249,4.125 L 5.249,4.124 C 5.249,3.918 5.417,3.75 5.624,3.75 L 5.625,3.75 C 5.832,3.75 6,3.918 6,4.124 Z M 4.501,4.125 L 4.501,4.126 C 4.501,4.332 4.333,4.5 4.126,4.5 L 1.875,4.5 C 1.668,4.5 1.5,4.332 1.5,4.126 L 1.5,4.125 C 1.5,3.919 1.668,3.751 1.875,3.751 L 4.126,3.751 C 4.333,3.751 4.501,3.919 4.501,4.125 Z M 4.5,5.624 L 4.5,5.625 C 4.5,5.831 4.332,5.999 4.125,5.999 L 1.874,5.999 C 1.667,5.999 1.499,5.831 1.499,5.625 L 1.499,5.624 C 1.499,5.418 1.667,5.25 1.874,5.25 L 4.125,5.25 C 4.332,5.25 4.5,5.418 4.5,5.624 Z M 6.002,5.624 L 6.002,5.625 C 6.002,5.831 5.834,5.999 5.627,5.999 L 5.626,5.999 C 5.419,5.999 5.251,5.831 5.251,5.625 L 5.251,5.624 C 5.251,5.418 5.419,5.25 5.626,5.25 L 5.627,5.25 C 5.834,5.25 6.002,5.418 6.002,5.624 Z M 7.501,5.624 L 7.501,5.625 C 7.501,5.831 7.333,5.999 7.126,5.999 L 7.125,5.999 C 6.918,5.999 6.75,5.831 6.75,5.625 L 6.75,5.624 C 6.75,5.418 6.918,5.25 7.125,5.25 L 7.126,5.25 C 7.333,5.25 7.501,5.418 7.501,5.624 Z M 6.002,7.124 L 6.002,7.125 C 6.002,7.331 5.834,7.499 5.627,7.499 L 5.626,7.499 C 5.419,7.499 5.251,7.331 5.251,7.125 L 5.251,7.124 C 5.251,6.918 5.419,6.75 5.626,6.75 L 5.627,6.75 C 5.834,6.75 6.002,6.918 6.002,7.124 Z M 7.501,7.124 L 7.501,7.125 C 7.501,7.331 7.333,7.499 7.126,7.499 L 7.125,7.499 C 6.918,7.499 6.75,7.331 6.75,7.125 L 6.75,7.124 C 6.75,6.918 6.918,6.75 7.125,6.75 L 7.126,6.75 C 7.333,6.75 7.501,6.918 7.501,7.124 Z M 4.5,7.125 L 4.5,7.126 C 4.5,7.332 4.331,7.5 4.124,7.5 L 1.877,7.5 C 1.67,7.5 1.501,7.332 1.501,7.126 L 1.501,7.125 C 1.501,6.919 1.67,6.751 1.877,6.751 L 4.124,6.751 C 4.331,6.751 4.5,6.919 4.5,7.125 Z M 6.002,8.624 L 6.002,8.625 C 6.002,8.831 5.834,8.999 5.627,8.999 L 5.626,8.999 C 5.419,8.999 5.251,8.831 5.251,8.625 L 5.251,8.624 C 5.251,8.418 5.419,8.25 5.626,8.25 L 5.627,8.25 C 5.834,8.25 6.002,8.418 6.002,8.624 Z M 7.501,8.624 L 7.501,8.625 C 7.501,8.831 7.333,8.999 7.126,8.999 L 7.125,8.999 C 6.918,8.999 6.75,8.831 6.75,8.625 L 6.75,8.624 C 6.75,8.418 6.918,8.25 7.125,8.25 L 7.126,8.25 C 7.333,8.25 7.501,8.418 7.501,8.624 Z M 4.5,8.625 L 4.5,8.626 C 4.5,8.832 4.332,9 4.125,9 L 1.874,9 C 1.667,9 1.499,8.832 1.499,8.626 L 1.499,8.625 C 1.499,8.419 1.667,8.251 1.874,8.251 L 4.125,8.251 C 4.332,8.251 4.5,8.419 4.5,8.625 Z M 4.5,10.125 L 4.5,10.126 C 4.5,10.332 4.332,10.5 4.125,10.5 L 1.874,10.5 C 1.667,10.5 1.499,10.332 1.499,10.126 L 1.499,10.125 C 1.499,9.919 1.667,9.751 1.874,9.751 L 4.125,9.751 C 4.332,9.751 4.5,9.919 4.5,10.125 Z M 6.001,10.125 L 6.001,10.126 C 6.001,10.332 5.833,10.5 5.626,10.5 L 5.625,10.5 C 5.418,10.5 5.25,10.332 5.25,10.126 L 5.25,10.125 C 5.25,9.919 5.418,9.751 5.625,9.751 L 5.626,9.751 C 5.833,9.751 6.001,9.919 6.001,10.125 Z M 7.501,10.125 L 7.501,10.126 C 7.501,10.332 7.333,10.5 7.126,10.5 L 7.125,10.5 C 6.918,10.5 6.75,10.332 6.75,10.126 L 6.75,10.125 C 6.75,9.919 6.918,9.751 7.125,9.751 L 7.126,9.751 C 7.333,9.751 7.501,9.919 7.501,10.125 Z" marker-start="none" marker-end="none"/><path d="M 5.895,0.273 L 5.894,0.274 C 5.456,0.712 5.558,1.527 6.121,2.09 L 9.911,5.88 C 10.474,6.443 11.289,6.545 11.727,6.107 L 11.728,6.106 C 12.166,5.667 12.064,4.853 11.501,4.289 L 7.711,0.5 C 7.148,-0.064 6.333,-0.166 5.895,0.273 Z M 6.955,0.803 L 11.197,5.046 C 11.343,5.193 11.343,5.43 11.197,5.577 C 11.05,5.723 10.813,5.723 10.666,5.577 L 6.424,1.334 C 6.278,1.187 6.278,0.95 6.424,0.803 C 6.571,0.657 6.808,0.657 6.955,0.803 Z" marker-start="none" marker-end="none"/></g></g></g></g><text x="0" y="27" fill="#000000" font-size="5px" font-weight="bold" font-family="'Helvetica Neue', Helvetica, Arial-Unicode, Arial, Sans-serif">Created by Denis Sazhin</text><text x="0" y="32" fill="#000000" font-size="5px" font-weight="bold" font-family="'Helvetica Neue', Helvetica, Arial-Unicode, Arial, Sans-serif">from the Noun Project</text></svg>