<svg width="19" height="26" viewBox="0 0 12 12" fill="none" xmlns="http://www.w3.org/2000/svg">
    <path fill-rule="evenodd" clip-rule="evenodd" d="M0 10.583V0.668C0 0.3 0.299 0.000999928 0.667 0.000999928H8.332C8.7 0.000999928 8.999 0.3 8.999 0.668V6.002L3.751 11.25H0.667C0.299 11.25 0 10.951 0 10.583ZM4.5 9.376V9.375C4.5 9.169 4.332 9.001 4.125 9.001H1.874C1.667 9.001 1.499 9.169 1.499 9.375V9.376C1.499 9.582 1.667 9.75 1.874 9.75H4.125C4.332 9.75 4.5 9.582 4.5 9.376ZM6 7.876V7.875C6 7.669 5.832 7.501 5.625 7.501H5.624C5.417 7.501 5.249 7.669 5.249 7.875V7.876C5.249 8.082 5.417 8.25 5.624 8.25H5.625C5.832 8.25 6 8.082 6 7.876ZM4.501 7.875V7.874C4.501 7.668 4.333 7.5 4.126 7.5H1.875C1.668 7.5 1.5 7.668 1.5 7.874V7.875C1.5 8.081 1.668 8.249 1.875 8.249H4.126C4.333 8.249 4.501 8.081 4.501 7.875ZM4.5 6.376V6.375C4.5 6.169 4.332 6.001 4.125 6.001H1.874C1.667 6.001 1.499 6.169 1.499 6.375V6.376C1.499 6.582 1.667 6.75 1.874 6.75H4.125C4.332 6.75 4.5 6.582 4.5 6.376ZM6.002 6.376V6.375C6.002 6.169 5.834 6.001 5.627 6.001H5.626C5.419 6.001 5.251 6.169 5.251 6.375V6.376C5.251 6.582 5.419 6.75 5.626 6.75H5.627C5.834 6.75 6.002 6.582 6.002 6.376ZM7.501 6.376V6.375C7.501 6.169 7.333 6.001 7.126 6.001H7.125C6.918 6.001 6.75 6.169 6.75 6.375V6.376C6.75 6.582 6.918 6.75 7.125 6.75H7.126C7.333 6.75 7.501 6.582 7.501 6.376ZM6.002 4.876V4.875C6.002 4.669 5.834 4.501 5.627 4.501H5.626C5.419 4.501 5.251 4.669 5.251 4.875V4.876C5.251 5.082 5.419 5.25 5.626 5.25H5.627C5.834 5.25 6.002 5.082 6.002 4.876ZM7.501 4.876V4.875C7.501 4.669 7.333 4.501 7.126 4.501H7.125C6.918 4.501 6.75 4.669 6.75 4.875V4.876C6.75 5.082 6.918 5.25 7.125 5.25H7.126C7.333 5.25 7.501 5.082 7.501 4.876ZM4.5 4.875V4.874C4.5 4.668 4.331 4.5 4.124 4.5H1.877C1.67 4.5 1.501 4.668 1.501 4.874V4.875C1.501 5.081 1.67 5.249 1.877 5.249H4.124C4.331 5.249 4.5 5.081 4.5 4.875ZM6.002 3.376V3.375C6.002 3.169 5.834 3.001 5.627 3.001H5.626C5.419 3.001 5.251 3.169 5.251 3.375V3.376C5.251 3.582 5.419 3.75 5.626 3.75H5.627C5.834 3.75 6.002 3.582 6.002 3.376ZM7.501 3.376V3.375C7.501 3.169 7.333 3.001 7.126 3.001H7.125C6.918 3.001 6.75 3.169 6.75 3.375V3.376C6.75 3.582 6.918 3.75 7.125 3.75H7.126C7.333 3.75 7.501 3.582 7.501 3.376ZM4.5 3.375V3.374C4.5 3.168 4.332 3 4.125 3H1.874C1.667 3 1.499 3.168 1.499 3.374V3.375C1.499 3.581 1.667 3.749 1.874 3.749H4.125C4.332 3.749 4.5 3.581 4.5 3.375ZM4.5 1.875V1.874C4.5 1.668 4.332 1.5 4.125 1.5H1.874C1.667 1.5 1.499 1.668 1.499 1.874V1.875C1.499 2.081 1.667 2.249 1.874 2.249H4.125C4.332 2.249 4.5 2.081 4.5 1.875ZM6.001 1.875V1.874C6.001 1.668 5.833 1.5 5.626 1.5H5.625C5.418 1.5 5.25 1.668 5.25 1.874V1.875C5.25 2.081 5.418 2.249 5.625 2.249H5.626C5.833 2.249 6.001 2.081 6.001 1.875ZM7.501 1.875V1.874C7.501 1.668 7.333 1.5 7.126 1.5H7.125C6.918 1.5 6.75 1.668 6.75 1.874V1.875C6.75 2.081 6.918 2.249 7.125 2.249H7.126C7.333 2.249 7.501 2.081 7.501 1.875Z" fill="black"/>
    <path fill-rule="evenodd" clip-rule="evenodd" d="M5.895 11.727L5.894 11.726C5.456 11.288 5.558 10.473 6.121 9.91L9.911 6.12C10.474 5.557 11.289 5.455 11.727 5.893L11.728 5.894C12.166 6.333 12.064 7.147 11.501 7.711L7.711 11.5C7.148 12.064 6.333 12.166 5.895 11.727ZM6.955 11.197L11.197 6.954C11.343 6.807 11.343 6.57 11.197 6.423C11.05 6.277 10.813 6.277 10.666 6.423L6.424 10.666C6.278 10.813 6.278 11.05 6.424 11.197C6.571 11.343 6.808 11.343 6.955 11.197Z" fill="black"/>
</svg>