<svg width="41" height="48" viewBox="0 0 41 48" fill="none" xmlns="http://www.w3.org/2000/svg">
<g clip-path="url(#clip0)">
<path d="M40.6926 45.5634L39.3164 40.3663C38.3989 36.7838 35.3915 34.1095 31.6705 33.6554L28.3573 33.2013L27.3378 30.2747C27.5417 30.1233 27.7966 29.972 28.0005 29.8206C31.3137 29.3665 34.8308 28.6601 36.9207 27.4491C37.3284 27.1968 37.4304 26.6922 37.1755 26.2381C36.1561 24.4721 35.2895 21.8482 34.7798 19.9813C35.0857 19.2749 35.3405 18.4676 35.3405 17.307C35.3405 15.0364 34.9837 13.6741 34.1681 12.9677C34.0152 12.7658 33.8113 12.6649 33.6584 12.564C33.0468 5.4999 27.3888 0 20.4055 0C13.4223 0 7.76433 5.44945 7.15266 12.5135C6.99975 12.6145 6.79586 12.7154 6.64294 12.9172C5.82738 13.6741 5.4196 15.0364 5.4196 17.307C5.4196 18.4676 5.67446 19.2749 5.9803 19.9813C5.47057 21.8482 4.60404 24.4721 3.58459 26.2381C3.32973 26.6922 3.3807 27.1968 3.83945 27.4491C5.92932 28.6601 9.4974 29.3665 12.7596 29.8206C12.9635 29.972 13.1674 30.1233 13.4223 30.2747L12.4028 33.2013L9.08962 33.6554C5.36863 34.16 2.36125 36.7838 1.44375 40.3663L0.0674951 45.5634C-0.0854222 46.1689 0.0165225 46.724 0.424302 47.1781C0.78111 47.6322 1.34181 47.8845 1.9025 47.8845H38.9596C39.5712 47.8845 40.1319 47.6322 40.4378 47.1781C40.7436 46.724 40.8455 46.1185 40.6926 45.5634ZM14.2378 34.2609L15.2573 31.3343C16.8374 32.0407 18.5705 32.4948 20.3545 32.4948C22.1386 32.4948 23.8207 32.0407 25.3499 31.3343L26.3694 34.2609C22.8013 36.8342 17.9078 36.8342 14.2378 34.2609ZM20.3036 30.3252C15.2573 30.3252 10.8737 26.4399 9.8542 21.1418C9.75226 20.7382 9.44642 20.385 9.03864 20.2841C8.88573 20.2336 7.56044 19.8299 7.56044 17.2566C7.56044 15.0869 7.96822 14.5319 8.17211 14.33C8.17211 14.33 8.27406 14.33 8.32503 14.2796C8.73281 15.0869 9.29351 16.2474 9.4974 17.5593C11.5873 14.5823 11.7912 11.6053 12.046 9.13287L12.8106 11.0503C12.9635 11.4035 13.2694 11.6053 13.6262 11.6053H27.032C27.3888 11.6053 27.6946 11.4035 27.8476 11.0503L28.6122 9.08241C28.918 11.5548 29.0709 14.5319 31.1608 17.5593C31.3647 16.2474 31.9254 15.0869 32.3331 14.2796C32.3841 14.2796 32.537 14.2796 32.588 14.33C32.6899 14.4309 33.0977 14.986 33.0977 17.1557C33.0977 19.6786 31.7724 20.1327 31.6195 20.1831C31.2117 20.2841 30.8549 20.6373 30.804 21.0409C29.8355 26.4399 25.4519 30.3252 20.3036 30.3252Z" fill="black"/>
<path d="M16.4297 18.3162C17.4712 18.3162 18.3156 17.4803 18.3156 16.4493C18.3156 15.4182 17.4712 14.5823 16.4297 14.5823C15.3881 14.5823 14.5437 15.4182 14.5437 16.4493C14.5437 17.4803 15.3881 18.3162 16.4297 18.3162Z" fill="black"/>
<path d="M24.2795 18.3162C25.321 18.3162 26.1655 17.4803 26.1655 16.4493C26.1655 15.4182 25.321 14.5823 24.2795 14.5823C23.2377 14.5823 22.3934 15.4182 22.3934 16.4493C22.3934 17.4803 23.2377 18.3162 24.2795 18.3162Z" fill="black"/>
<path d="M20.3545 22.1005C18.7234 22.1005 17.1942 23.0088 16.3787 24.4216C16.1748 24.7748 16.3277 25.2794 16.6845 25.4812C17.0413 25.683 17.551 25.5317 17.7549 25.1785C18.2647 24.2198 19.2841 23.6647 20.3545 23.6647C21.4249 23.6647 22.4444 24.2702 22.9542 25.1785C23.1071 25.4308 23.362 25.5821 23.6169 25.5821C23.7188 25.5821 23.8717 25.5317 23.9737 25.4812C24.3305 25.2794 24.4834 24.8253 24.2795 24.4216C23.5149 23.0088 21.9856 22.1005 20.3545 22.1005Z" fill="black"/>
</g>
<defs>
<clipPath id="clip0">
<rect width="40.96" height="47.98" fill="white"/>
</clipPath>
</defs>
</svg>
