<svg width="41" height="48" viewBox="0 0 41 48" fill="none" xmlns="http://www.w3.org/2000/svg">
<g clip-path="url(#clip0)">
<path d="M40.7199 45.4807L39.3427 40.293C38.4246 36.7171 35.4152 34.0475 31.6917 33.5944L28.3763 33.141L27.3561 30.2198C27.5602 30.0687 27.8152 29.9177 28.0192 29.7664C31.3347 29.3132 34.8541 28.608 36.9454 27.3994C37.3535 27.1475 37.4555 26.6439 37.2004 26.1905C36.1803 24.4277 35.3132 21.8086 34.8031 19.9451C35.1092 19.2399 35.3642 18.4341 35.3642 17.2756C35.3642 15.0092 35.0071 13.6493 34.191 12.9441C34.038 12.7427 33.834 12.6419 33.681 12.5412C33.0689 5.48993 27.4071 0 20.4193 0C13.4313 0 7.76957 5.43956 7.15749 12.4908C7.00447 12.5916 6.80044 12.6923 6.64742 12.8938C5.83131 13.6493 5.42326 15.0092 5.42326 17.2756C5.42326 18.4341 5.67829 19.2399 5.98433 19.9451C5.47426 21.8086 4.60715 24.4277 3.58701 26.1905C3.33198 26.6439 3.38299 27.1475 3.84205 27.3994C5.93333 28.608 9.5038 29.3132 12.7682 29.7664C12.9723 29.9177 13.1763 30.0687 13.4313 30.2198L12.4112 33.141L9.09575 33.5944C5.37225 34.098 2.36285 36.7171 1.44472 40.293L0.0675404 45.4807C-0.08548 46.0852 0.0165336 46.6391 0.424588 47.0925C0.781635 47.5459 1.34271 47.7977 1.90378 47.7977H38.9857C39.5978 47.7977 40.1588 47.5459 40.4649 47.0925C40.7709 46.6391 40.8729 46.0349 40.7199 45.4807ZM14.2474 34.1988L15.2676 31.2774C16.8488 31.9826 18.583 32.436 20.3682 32.436C22.1535 32.436 23.8367 31.9826 25.3669 31.2774L26.387 34.1988C22.8166 36.7674 17.9199 36.7674 14.2474 34.1988ZM20.3172 30.27C15.2676 30.27 10.881 26.392 9.86085 21.1035C9.75883 20.7006 9.45279 20.348 9.04474 20.2473C8.89172 20.1969 7.56554 19.794 7.56554 17.2253C7.56554 15.0595 7.9736 14.5055 8.17762 14.304C8.17762 14.304 8.27964 14.304 8.33065 14.2537C8.7387 15.0595 9.29977 16.218 9.5038 17.5275C11.5951 14.5559 11.7991 11.5843 12.0541 9.1163L12.8192 11.0302C12.9723 11.3828 13.2783 11.5843 13.6354 11.5843H27.0501C27.4071 11.5843 27.7132 11.3828 27.8662 11.0302L28.6313 9.06594C28.9373 11.5339 29.0904 14.5055 31.1816 17.5275C31.3857 16.218 31.9467 15.0595 32.3548 14.2537C32.4058 14.2537 32.5588 14.2537 32.6098 14.304C32.7118 14.4048 33.1199 14.9588 33.1199 17.1245C33.1199 19.6429 31.7937 20.0962 31.6407 20.1465C31.2326 20.2473 30.8756 20.5998 30.8246 21.0028C29.8555 26.392 25.4689 30.27 20.3172 30.27Z" fill="black"/>
<path d="M22.9696 23.37H17.7669C17.3588 23.37 17.0018 23.7225 17.0018 24.1255C17.0018 24.5284 17.3588 24.881 17.7669 24.881H23.0206C23.4287 24.881 23.7857 24.5284 23.7857 24.1255C23.7857 23.7225 23.4287 23.37 22.9696 23.37Z" fill="black"/>
<path d="M16.4407 18.283C17.483 18.283 18.328 17.4486 18.328 16.4194C18.328 15.3902 17.483 14.5559 16.4407 14.5559C15.3984 14.5559 14.5535 15.3902 14.5535 16.4194C14.5535 17.4486 15.3984 18.283 16.4407 18.283Z" fill="black"/>
<path d="M24.2958 18.283C25.3381 18.283 26.183 17.4486 26.183 16.4194C26.183 15.3902 25.3381 14.5559 24.2958 14.5559C23.2535 14.5559 22.4085 15.3902 22.4085 16.4194C22.4085 17.4486 23.2535 18.283 24.2958 18.283Z" fill="black"/>
</g>
<defs>
<clipPath id="clip0">
<rect width="40.96" height="47.98" fill="white"/>
</clipPath>
</defs>
</svg>
