<svg width="41" height="47" viewBox="0 0 41 47" fill="none" xmlns="http://www.w3.org/2000/svg">
<g clip-path="url(#clip0)">
<path d="M40.684 44.5856L39.308 39.5C38.3907 35.9945 35.384 33.3774 31.6637 32.9332L28.3512 32.4887L27.332 29.625C27.5358 29.477 27.7906 29.3289 27.9945 29.1806C31.307 28.7363 34.8234 28.045 36.9128 26.8601C37.3205 26.6132 37.4224 26.1195 37.1676 25.675C36.1484 23.9469 35.282 21.3794 34.7724 19.5525C35.0782 18.8613 35.333 18.0713 35.333 16.9356C35.333 14.7138 34.9763 13.3806 34.1609 12.6894C34.008 12.4919 33.8041 12.3931 33.6513 12.2944C33.0397 5.38188 27.383 0 20.4013 0C13.4195 0 7.76273 5.33251 7.15119 12.245C6.9983 12.3438 6.79445 12.4425 6.64157 12.64C5.82618 13.3806 5.41848 14.7138 5.41848 16.9356C5.41848 18.0713 5.67329 18.8613 5.97906 19.5525C5.46945 21.3794 4.60309 23.9469 3.58386 25.675C3.32905 26.1195 3.38001 26.6132 3.83867 26.8601C5.9281 28.045 9.49543 28.7363 12.757 29.1806C12.9608 29.3289 13.1647 29.477 13.4195 29.625L12.4003 32.4887L9.08774 32.9332C5.36752 33.427 2.36077 35.9945 1.44345 39.5L0.0674815 44.5856C-0.0854041 45.1782 0.0165194 45.7212 0.424215 46.1657C0.780948 46.6101 1.34153 46.857 1.90211 46.857H38.9513C39.5628 46.857 40.1234 46.6101 40.4292 46.1657C40.735 45.7212 40.8369 45.1289 40.684 44.5856ZM14.2349 33.5258L15.2541 30.6618C16.8339 31.3532 18.5666 31.7976 20.3503 31.7976C22.134 31.7976 23.8156 31.3532 25.3445 30.6618L26.3637 33.5258C22.7965 36.0438 17.9041 36.0438 14.2349 33.5258ZM20.2993 29.6743C15.2541 29.6743 10.8714 25.8726 9.85217 20.6881C9.75024 20.2931 9.44447 19.9475 9.03678 19.8488C8.88389 19.7994 7.55888 19.4044 7.55888 16.8863C7.55888 14.7631 7.96658 14.22 8.17042 14.0225C8.17042 14.0225 8.27235 14.0225 8.32331 13.9731C8.73101 14.7631 9.29159 15.8988 9.49543 17.1825C11.5849 14.2694 11.7887 11.3563 12.0435 8.93689L12.808 10.8131C12.9608 11.1588 13.2666 11.3563 13.6233 11.3563H27.0262C27.3829 11.3563 27.6887 11.1588 27.8416 10.8131L28.606 8.88751C28.9118 11.3069 29.0647 14.22 31.1541 17.1825C31.358 15.8988 31.9186 14.7631 32.3262 13.9731C32.3772 13.9731 32.5301 13.9731 32.5811 14.0225C32.683 14.1213 33.0907 14.6644 33.0907 16.7875C33.0907 19.2563 31.7657 19.7006 31.6128 19.75C31.2051 19.8488 30.8484 20.1944 30.7974 20.5894C29.8291 25.8726 25.4464 29.6743 20.2993 29.6743Z" fill="black"/>
<path d="M17.027 18.4235C18.0134 18.4235 18.813 17.6502 18.813 16.6963C18.813 15.7424 18.0134 14.9691 17.027 14.9691C16.0406 14.9691 15.2409 15.7424 15.2409 16.6963C15.2409 17.6502 16.0406 18.4235 17.027 18.4235Z" fill="black"/>
<path d="M24.2902 18.4235C25.2109 18.4235 25.9572 17.6502 25.9572 16.6963C25.9572 15.7424 25.2109 14.9691 24.2902 14.9691C23.3696 14.9691 22.6232 15.7424 22.6232 16.6963C22.6232 17.6502 23.3696 18.4235 24.2902 18.4235Z" fill="black"/>
<path d="M15.758 21.086C15.5721 21.3106 15.4791 21.6252 15.4791 21.8948C15.8045 24.3663 17.9897 26.2535 20.5933 26.2535C23.1968 26.2535 25.3821 24.3663 25.7074 21.8948C25.7538 21.5802 25.661 21.3106 25.4285 21.086C25.2426 20.8613 24.917 20.7265 24.5917 20.7265H16.5949C16.2695 20.7265 15.944 20.8613 15.758 21.086ZM24.2197 22.7935H16.9203C16.7809 22.479 16.6414 22.1644 16.5484 21.8049H24.545C24.4986 22.1644 24.3591 22.479 24.2197 22.7935Z" fill="black"/>
</g>
<defs>
<clipPath id="clip0">
<rect width="40.96" height="46.98" fill="white"/>
</clipPath>
</defs>
</svg>
