<svg width="41" height="48" viewBox="0 0 41 48" fill="none" xmlns="http://www.w3.org/2000/svg">
<g clip-path="url(#clip0)">
<path d="M40.684 45.5157L39.3081 40.3239C38.3907 36.7453 35.384 34.0737 31.6638 33.6202L28.3513 33.1664L27.3319 30.243C27.5359 30.0918 27.7907 29.9406 27.9945 29.7892C31.307 29.3357 34.8234 28.63 36.9128 27.4204C37.3205 27.1683 37.4224 26.6643 37.1676 26.2106C36.1485 24.4465 35.282 21.8253 34.7725 19.9604C35.0782 19.2547 35.3331 18.4482 35.3331 17.2889C35.3331 15.0207 34.9762 13.6598 34.1609 12.9541C34.008 12.7525 33.8042 12.6517 33.6512 12.5508C33.0397 5.49415 27.383 0 20.4013 0C13.4195 0 7.76272 5.44375 7.15119 12.5004C6.99831 12.6013 6.79446 12.7021 6.64156 12.9037C5.82618 13.6598 5.41848 15.0207 5.41848 17.2889C5.41848 18.4482 5.6733 19.2547 5.97906 19.9604C5.46945 21.8253 4.6031 24.4465 3.58385 26.2106C3.32906 26.6643 3.38 27.1683 3.83867 27.4204C5.92809 28.63 9.49544 29.3357 12.757 29.7892C12.9608 29.9406 13.1647 30.0918 13.4195 30.243L12.4003 33.1664L9.08774 33.6202C5.36751 34.1242 2.36077 36.7453 1.44345 40.3239L0.0674815 45.5157C-0.0854042 46.1206 0.0165193 46.6749 0.424215 47.1286C0.780947 47.5824 1.34153 47.8345 1.90211 47.8345H38.9513C39.5629 47.8345 40.1235 47.5824 40.4292 47.1286C40.7349 46.6749 40.8369 46.0704 40.684 45.5157ZM14.2349 34.2251L15.2541 31.3014C16.8339 32.0073 18.5666 32.461 20.3503 32.461C22.134 32.461 23.8157 32.0073 25.3445 31.3014L26.3637 34.2251C22.7966 36.7957 17.9041 36.7957 14.2349 34.2251ZM20.2994 30.2934C15.2541 30.2934 10.8714 26.4124 9.85217 21.1197C9.75023 20.7165 9.44447 20.3636 9.03677 20.2628C8.88389 20.2124 7.55887 19.8092 7.55887 17.2385C7.55887 15.0711 7.96657 14.5166 8.17042 14.315C8.17042 14.315 8.27236 14.315 8.3233 14.2646C8.731 15.0711 9.29159 16.2304 9.49544 17.541C11.5849 14.5671 11.7887 11.5932 12.0435 9.12331L12.808 11.0387C12.9608 11.3915 13.2666 11.5932 13.6233 11.5932H27.0262C27.383 11.5932 27.6887 11.3915 27.8416 11.0387L28.6061 9.07291C28.9118 11.5427 29.0647 14.5166 31.1541 17.541C31.358 16.2304 31.9186 15.0711 32.3263 14.2646C32.3772 14.2646 32.5301 14.2646 32.5811 14.315C32.6829 14.4158 33.0906 14.9703 33.0906 17.1377C33.0906 19.6579 31.7657 20.1116 31.6129 20.162C31.2052 20.2628 30.8484 20.6156 30.7975 21.019C29.829 26.4124 25.4463 30.2934 20.2994 30.2934Z" fill="black"/>
<path d="M16.4127 18.0852C17.4543 18.0852 18.2988 17.253 18.2988 16.2265C18.2988 15.1999 17.4543 14.3677 16.4127 14.3677C15.371 14.3677 14.5265 15.1999 14.5265 16.2265C14.5265 17.253 15.371 18.0852 16.4127 18.0852Z" fill="black"/>
<path d="M24.3651 18.0852C25.4066 18.0852 26.2513 17.253 26.2513 16.2265C26.2513 15.1999 25.4066 14.3677 24.3651 14.3677C23.3233 14.3677 22.4788 15.1999 22.4788 16.2265C22.4788 17.253 23.3233 18.0852 24.3651 18.0852Z" fill="black"/>
<path d="M16.5656 22.8075C16.2597 23.1088 16.2088 23.5611 16.4636 23.9129C17.2793 24.8673 18.8086 25.4198 20.3889 25.4198C21.9691 25.4198 23.4984 24.817 24.314 23.9129C24.6199 23.6113 24.5688 23.1088 24.2122 22.8075C23.9063 22.506 23.3964 22.5562 23.0907 22.908C22.0711 24.1135 18.6556 24.1135 17.6361 22.908C17.3812 22.5562 16.8714 22.506 16.5656 22.8075Z" fill="black"/>
</g>
<defs>
<clipPath id="clip0">
<rect width="40.96" height="47.96" fill="white"/>
</clipPath>
</defs>
</svg>
