<svg width="42" height="54" viewBox="0 0 42 54" fill="none" xmlns="http://www.w3.org/2000/svg">
<path d="M38.1696 41.5498C38.4218 41.5493 38.6708 41.4916 38.8989 41.3808C39.1269 41.27 39.3283 41.1088 39.4888 40.9087C39.6493 40.7085 39.7648 40.4744 39.8272 40.2231C39.8895 39.9717 39.8972 39.7093 39.8496 39.4546L38.9298 34.439C37.8339 34.7878 36.7208 35.0762 35.595 35.303L36.4854 40.1155C36.5598 40.5189 36.7687 40.883 37.0762 41.1448C37.3837 41.4067 37.7704 41.5499 38.1696 41.5498V41.5498Z" fill="black"/>
<path d="M28.4844 36.0072H28.3332L26.5356 38.8152C26.3172 39.2054 26.2519 39.6667 26.353 40.1048C26.4542 40.543 26.7141 40.9248 27.0798 41.1724C27.4454 41.42 27.8892 41.5147 28.3204 41.4371C28.7517 41.3595 29.1378 41.1155 29.4 40.7549L32.592 35.7782C31.2279 35.9315 29.8566 36.008 28.4844 36.0072V36.0072Z" fill="black"/>
<path d="M38.157 30.2832L37.4724 29.1038L36.7332 27.8078C36.6072 27.8758 36.4749 27.9308 36.3384 27.972C36.2326 28.0015 36.1243 28.0203 36.015 28.0282C35.9521 28.0325 35.8889 28.0325 35.826 28.0282C35.4884 28.0361 35.1549 27.9511 34.86 27.7819L32.4282 26.352L31.5294 25.825L31.2144 25.6392L30.3744 25.1381L29.9838 24.9048C29.6049 24.6834 29.3099 24.3367 29.1467 23.921C28.9835 23.5054 28.9618 23.0452 29.085 22.6152L30.765 16.6968C30.8443 16.4095 30.985 16.144 31.1768 15.9197C31.3686 15.6955 31.6068 15.5182 31.8738 15.4008C32.2847 15.2157 32.746 15.1867 33.1758 15.3187C33.4215 15.3908 33.6509 15.5121 33.8508 15.6757C34.0506 15.8394 34.2171 16.0421 34.3404 16.2722C34.4638 16.5023 34.5417 16.7552 34.5696 17.0164C34.5975 17.2776 34.5749 17.5419 34.503 17.7941L33.243 22.2178L34.5702 22.9997L34.9902 23.2459C34.9984 21.3251 35.2296 19.4122 35.679 17.5478C35.741 17.2906 35.772 17.0266 35.7714 16.7616C35.7721 16.0703 35.5633 15.396 35.1741 14.8323C34.785 14.2687 34.2348 13.8438 33.6 13.6166C33.0611 13.4205 32.4808 13.3772 31.92 13.4914V13.4914L31.5 13.5475C30.8049 13.6424 30.1734 14.0129 29.7402 14.58L29.631 14.7226L29.3622 14.3554C29.259 14.2137 29.1209 14.103 28.9621 14.0346C28.8034 13.9662 28.6297 13.9428 28.4592 13.9666L25.1622 14.3986C24.1032 14.5453 23.1265 15.065 22.3982 15.8692C21.6699 16.6734 21.2352 17.7124 21.168 18.8093L25.8552 16.8091C25.9471 16.7753 26.0475 16.7755 26.1393 16.8096C26.231 16.8436 26.3084 16.9095 26.3581 16.9959C26.4078 17.0823 26.4267 17.1837 26.4116 17.2829C26.3964 17.382 26.3482 17.4726 26.2752 17.5392L21.7686 21.4574C21.7191 21.5005 21.6599 21.5302 21.5964 21.5438L23.058 27.6739C23.1309 27.9862 23.2652 28.2799 23.4525 28.5368C23.6399 28.7937 23.8764 29.0085 24.1474 29.1679C24.4185 29.3274 24.7184 29.4281 25.0287 29.4639C25.339 29.4996 25.6531 29.4697 25.9518 29.376L27.2118 28.9699C27.7693 28.7971 28.2374 28.4041 28.5138 27.877L28.6146 27.6782L28.5054 28.5682C28.5033 28.5984 28.5033 28.6287 28.5054 28.6589L28.3878 35.5709H28.602C30.0311 35.5684 31.4588 35.479 32.8776 35.3031C33.7554 35.1994 34.6332 35.0611 35.5026 34.8711C36.6289 34.6467 37.7422 34.3583 38.8374 34.007C39.2574 33.8731 39.6774 33.7349 40.0638 33.575L38.157 30.2832Z" fill="black"/>
<path d="M34.9944 23.76L34.5744 23.5094L32.76 22.4165L34.0872 17.6645C34.1431 17.4665 34.1605 17.2591 34.1384 17.0542C34.1163 16.8493 34.0551 16.6509 33.9583 16.4703C33.8616 16.2898 33.7312 16.1306 33.5746 16.0019C33.4179 15.8733 33.2382 15.7776 33.0456 15.7205C32.6569 15.6068 32.2402 15.6555 31.8863 15.8562C31.5323 16.0568 31.2697 16.3931 31.1556 16.7918L29.4756 22.7102C29.3804 23.0478 29.3982 23.4084 29.5262 23.7343C29.6541 24.0602 29.8848 24.3325 30.1812 24.5074L31.206 25.1165L31.5294 25.3066L31.7772 25.4534L31.9704 25.5701L35.0448 27.3888C35.1181 27.4327 35.1955 27.4689 35.2758 27.4968V27.4968C35.5341 27.599 35.8153 27.623 36.0864 27.5659C36.3667 27.5088 36.6265 27.3745 36.8382 27.1771C36.9511 27.0704 37.0474 26.9466 37.1238 26.8099C37.2261 26.6306 37.2927 26.4323 37.32 26.2263C37.3472 26.0204 37.3345 25.8109 37.2826 25.6101C37.2306 25.4092 37.1405 25.2209 37.0173 25.0561C36.8942 24.8913 36.7405 24.7533 36.5652 24.6499L35.3976 23.9587L34.9944 23.76Z" fill="black"/>
<path d="M27.1908 10.368C26.7708 11.2579 25.5108 10.6877 24.6708 10.0656C25.3176 11.7936 26.5398 12.2602 28.182 11.9923C29.3202 11.7115 30.429 10.7741 31.542 9.51264C31.668 9.3744 31.7898 9.22752 31.9158 9.08064C31.972 10.0035 32.3431 10.8764 32.9636 11.5455C33.5841 12.2146 34.4143 12.637 35.3079 12.7383C36.2015 12.8396 37.1012 12.6133 37.8485 12.0993C38.5958 11.5852 39.1427 10.8164 39.393 9.92823C39.6433 9.04008 39.5808 8.08958 39.2166 7.24417C38.8523 6.39875 38.2097 5.71266 37.402 5.30676C36.5942 4.90085 35.6731 4.80118 34.8009 5.02528C33.9286 5.24939 33.1613 5.7829 32.634 6.53184C32.425 6.58697 32.2189 6.6533 32.0166 6.73056C30.1168 7.47 28.4486 8.72744 27.1908 10.368V10.368Z" fill="black"/>
<path d="M25.6209 17.388L21.2058 19.259C21.1918 19.265 21.1799 19.2753 21.1717 19.2884C21.1635 19.3015 21.1592 19.3168 21.1596 19.3324C21.1723 19.6458 21.2159 19.9571 21.2898 20.2614L21.4705 21.0176C21.4728 21.0293 21.4781 21.0402 21.4858 21.0492C21.4935 21.0583 21.5033 21.0651 21.5143 21.069C21.5253 21.0729 21.5372 21.0738 21.5486 21.0716C21.5601 21.0694 21.5708 21.0642 21.5797 21.0565L25.6756 17.5047C25.685 17.4945 25.6912 17.4816 25.6934 17.4677C25.6955 17.4538 25.6935 17.4395 25.6876 17.4269C25.6816 17.4142 25.6721 17.4037 25.6602 17.3967C25.6483 17.3898 25.6346 17.3867 25.6209 17.388Z" fill="black"/>
<path d="M21.1091 8.0568C22.2301 5.96806 21.4927 3.34007 19.4619 2.18702C17.4312 1.03397 14.8762 1.7925 13.7552 3.88124C12.6342 5.96999 13.3716 8.59798 15.4024 9.75103C17.4331 10.9041 19.9881 10.1455 21.1091 8.0568Z" fill="black"/>
<path d="M7.3794 14.0918C7.43214 14.1802 7.45225 14.2851 7.43606 14.3874C7.41987 14.4897 7.36845 14.5826 7.2912 14.6491L2.5494 18.7574C2.49965 18.8011 2.44068 18.8321 2.3772 18.8482L3.9186 25.2936C3.99529 25.6205 4.13626 25.9278 4.33281 26.1965C4.52937 26.4652 4.77734 26.6896 5.06146 26.856C5.34557 27.0223 5.6598 27.127 5.98478 27.1637C6.30975 27.2004 6.63858 27.1682 6.951 27.0691L8.2404 26.6631C8.58633 26.5538 8.89193 26.3393 9.11688 26.0478C9.34183 25.7562 9.47555 25.4014 9.5004 25.0301L9.534 24.5419C9.534 24.6327 9.849 26.3434 9.8616 26.4341C9.8952 26.6415 9.933 26.8661 9.9708 27.0519C10.0861 27.6714 10.3569 28.2492 10.7562 28.728V28.728L10.92 29.5099L11.4156 31.8643L7.2618 38.3443C7.00653 38.7744 6.92361 39.2897 7.03051 39.7815C7.13742 40.2732 7.42579 40.7031 7.83484 40.9804C8.24389 41.2577 8.74165 41.3608 9.22317 41.268C9.7047 41.1751 10.1324 40.8936 10.416 40.4827L15.015 33.3202C15.1541 33.1043 15.2496 32.8619 15.2958 32.6074C15.3419 32.3528 15.3379 32.0913 15.2838 31.8384L14.931 30.1752L14.8428 29.7432L14.7504 29.3112L14.931 29.2248L15.309 29.497L15.6786 29.7648L16.4766 30.3437L18.2238 39.7872C18.305 40.2315 18.5346 40.6326 18.8728 40.9213C19.2109 41.2099 19.6365 41.3681 20.076 41.3683C20.1958 41.3695 20.3155 41.3579 20.433 41.3338C20.9253 41.2374 21.3602 40.944 21.6422 40.5178C21.9242 40.0917 22.0301 39.5679 21.9366 39.0615L20.0466 28.8533C19.9492 28.3654 19.6743 27.9342 19.278 27.648L17.4594 26.3304L17.0394 26.0151L16.569 25.6781C16.5186 25.3973 16.4724 25.1208 16.4346 24.84L14.5278 24.1963L13.2678 23.7643L13.02 23.6693L12.8142 23.5959L12.5748 23.5138C12.3775 23.4469 12.1908 23.3508 12.0204 23.2287C11.7219 23.0139 11.4828 22.7229 11.3267 22.3843C11.1706 22.0458 11.1028 21.6713 11.13 21.2976L11.6256 14.5325C11.6577 14.0905 11.8212 13.6694 12.094 13.3263C12.3667 12.9831 12.7355 12.7346 13.1502 12.6144C13.3798 12.5419 13.6203 12.5126 13.86 12.528C14.2072 12.5546 14.5425 12.6697 14.8358 12.8627C15.1291 13.0558 15.371 13.3208 15.54 13.6339C15.7424 14.0199 15.83 14.4586 15.792 14.8954L15.4266 19.9195L16.17 20.1701L16.59 20.3127C16.6597 18.4931 16.9074 16.6855 17.3292 14.917C17.5355 14.0343 17.4165 13.1043 16.9954 12.3065C16.5742 11.5087 15.8807 10.8997 15.0486 10.597C14.5095 10.341 13.9116 10.2453 13.3224 10.3205C13.2202 10.3249 13.1188 10.3409 13.02 10.368L12.6714 10.476C12.3228 10.5841 12.0083 10.7853 11.76 11.0592L10.962 11.8454L11.1006 11.4134C11.1273 11.3376 11.1342 11.256 11.1207 11.1765C11.1072 11.0971 11.0738 11.0227 11.0237 10.9607C10.9736 10.8987 10.9086 10.8512 10.8351 10.823C10.7617 10.7948 10.6823 10.7869 10.605 10.8L6.1236 11.3875C5.01094 11.541 3.98437 12.0863 3.21861 12.9307C2.45285 13.775 1.99521 14.8662 1.9236 16.0186L6.8544 13.919C6.94746 13.8779 7.05184 13.8727 7.14832 13.9045C7.24479 13.9362 7.32686 14.0028 7.3794 14.0918V14.0918Z" fill="black"/>
<path d="M16.3464 24.3346L16.7664 24.4814L17.22 24.6326L18.5556 25.0646C18.7676 25.1449 18.9932 25.1804 19.2188 25.169C19.4444 25.1576 19.6655 25.0995 19.8688 24.9981C20.0721 24.8968 20.2534 24.7543 20.402 24.5792C20.5505 24.4042 20.6632 24.2001 20.7333 23.9792C20.8034 23.7582 20.8294 23.5251 20.8099 23.2936C20.7903 23.0621 20.7256 22.837 20.6195 22.6319C20.5134 22.4267 20.3682 22.2456 20.1926 22.0995C20.0169 21.9534 19.8144 21.8452 19.5972 21.7814L16.9722 20.9174L16.5522 20.7792L16.1322 20.641L14.9562 20.2435L15.351 14.8262C15.3883 14.3711 15.2488 13.9192 14.9631 13.5695C14.6774 13.2198 14.2687 13.0006 13.8264 12.96C13.5866 12.9391 13.3453 12.9746 13.1208 13.0637C12.8192 13.1785 12.5559 13.38 12.3624 13.6442C12.1688 13.9084 12.053 14.2242 12.0288 14.5541L11.5332 21.3322C11.5053 21.7177 11.604 22.1018 11.8133 22.4229C12.0227 22.744 12.3308 22.9836 12.6882 23.1034L12.81 23.1422L16.3464 24.3346Z" fill="black"/>
<path d="M2.2512 18.3254C2.25378 18.336 2.2589 18.3457 2.2661 18.3537C2.2733 18.3617 2.28234 18.3677 2.29239 18.3712C2.30243 18.3746 2.31316 18.3754 2.32358 18.3734C2.334 18.3715 2.34378 18.3669 2.352 18.36L6.72 14.5886C6.73448 14.58 6.74505 14.5659 6.74938 14.5493C6.75372 14.5327 6.75146 14.515 6.7431 14.5001C6.73475 14.4852 6.72098 14.4743 6.70484 14.4699C6.68869 14.4654 6.67148 14.4677 6.657 14.4763L1.9656 16.4722C1.95272 16.4768 1.94165 16.4857 1.93408 16.4973C1.9265 16.509 1.92283 16.5229 1.9236 16.537C1.93737 16.8678 1.98381 17.1964 2.0622 17.5176L2.2512 18.3254Z" fill="black"/>
</svg>
