<svg width="41" height="48" viewBox="0 0 41 48" fill="none" xmlns="http://www.w3.org/2000/svg">
<g clip-path="url(#clip0)">
<path d="M15.3412 11.3702C15.6922 11.3702 16.0216 11.5525 16.2488 11.8647L23.2786 6.70467L23.509 7.15664L16.4725 12.3216C16.6575 12.9314 16.482 13.6377 16.0131 14.0154C14.7645 15.0241 13.4698 15.6722 12.2099 15.9285V21.3916H41V0H12.2099V12.9815C13.0045 12.7511 13.8182 12.2996 14.6709 11.6155C14.8698 11.4551 15.1018 11.3702 15.3412 11.3702Z" fill="black"/>
<path d="M8.1502 8.90252C8.48962 7.1537 7.58324 5.40585 6.12574 4.99859C4.66824 4.59133 3.21155 5.67887 2.87213 7.42769C2.53271 9.17651 3.43909 10.9244 4.89659 11.3316C6.35409 11.7389 7.81078 10.6513 8.1502 8.90252Z" fill="black"/>
<path d="M1.78288 19.8289C1.9143 19.8984 2.05308 19.9589 2.19582 20.0152C2.27436 20.0461 2.35471 20.0751 2.43686 20.1019C2.45879 20.109 2.48083 20.1159 2.50288 20.1228C2.85016 20.2304 3.22829 20.3041 3.64328 20.342C3.86866 20.3625 4.10368 20.3735 4.35062 20.3738C4.59913 20.3738 4.85909 20.3635 5.13145 20.342C5.21951 20.335 5.30359 20.3129 5.38321 20.28C5.7835 20.1142 6.059 19.6441 6.03021 19.1128C5.99539 18.4753 5.53656 17.9926 5.00557 18.0344C4.77211 18.0526 4.55384 18.0613 4.35074 18.0613C4.20836 18.0617 4.07356 18.0575 3.94636 18.0496C3.21396 18.0035 2.72826 17.8282 2.43698 17.6407C2.37531 17.6011 2.32122 17.5608 2.27665 17.5212C2.24653 17.4949 2.22027 17.4693 2.19594 17.444C2.09885 17.3431 2.04259 17.2484 2.00224 17.1532C1.95333 17.0332 1.92731 16.9011 1.92695 16.734C1.9184 16.3461 2.11415 15.7666 2.43385 15.3463C2.43494 15.3449 2.43602 15.3437 2.4371 15.3423V17.3185L2.55082 17.3918C2.74813 17.5188 3.18239 17.7216 3.98358 17.7683L4.31991 15.2224L7.57186 15.8409L7.16784 18.8988L6.70418 22.4077L5.97407 22.2688L5.41562 22.1626L3.45223 21.7892L3.60485 20.6342C3.18926 20.5948 2.80776 20.5205 2.45192 20.4108C2.44698 20.4092 2.44192 20.4077 2.43698 20.4063V20.6504V23.3878V35.8181C2.43698 36.8051 3.10385 37.605 3.92624 37.605C4.74875 37.605 5.41562 36.8051 5.41562 35.8181V24.5048H5.97395V35.8181C5.97395 36.8051 6.64082 37.605 7.46321 37.605C8.28571 37.605 8.95258 36.8051 8.95258 35.8181V23.3878V20.6504V15.68V15.3751C9.49779 15.5924 10.1825 15.763 10.9919 15.7649C10.9964 15.7649 11.001 15.7649 11.0056 15.7649C11.3831 15.7649 11.7859 15.724 12.2089 15.6357C13.3103 15.4061 14.5532 14.8459 15.8778 13.776C16.2394 13.4848 16.3837 12.951 16.2618 12.4759C16.2347 12.3704 16.1949 12.2678 16.141 12.1715C16.11 12.116 16.0749 12.066 16.0378 12.019C15.7202 11.6181 15.1994 11.537 14.8037 11.856C13.8216 12.644 12.9572 13.0695 12.2089 13.2785C11.7618 13.4034 11.3563 13.451 10.9917 13.4523C10.2213 13.4523 9.62331 13.2346 9.22073 13.0242C9.02004 12.9188 8.86971 12.8157 8.77575 12.7448C8.72877 12.7092 8.696 12.682 8.67842 12.6666C8.67203 12.6611 8.66745 12.657 8.66504 12.6549C8.66348 12.6533 8.66312 12.653 8.66312 12.653L8.66287 12.6531C8.55687 12.5521 8.43834 12.4827 8.31523 12.443C8.22283 12.4061 8.1243 12.3854 8.02154 12.3854H7.36359H3.36766C3.30093 12.3854 3.23612 12.3943 3.17336 12.4102C2.75488 12.4446 2.36675 12.601 2.02212 12.8224C1.43571 13.2032 0.955557 13.7703 0.596344 14.4373C0.241466 15.1054 0.00186984 15.8857 -0.00102121 16.734C-0.00150306 17.2121 0.0814944 17.7133 0.274834 18.1801C0.562855 18.8855 1.09674 19.4691 1.78288 19.8289Z" fill="black"/>
</g>
<defs>
<clipPath id="clip0">
<rect width="41" height="47.0059" fill="white"/>
</clipPath>
</defs>
</svg>
